<svg width="17" height="18" viewBox="0 0 17 18" fill="none" xmlns="http://www.w3.org/2000/svg">
<path fill-rule="evenodd" clip-rule="evenodd" d="M4.34237 16.8102C4.40524 16.3329 4.88809 15.5341 4.49016 15.2636C2.81499 14.1252 0.913364 12.6222 1.00306 10.3712C1.03926 9.4588 1.30488 8.33022 1.95099 7.65021C2.38825 7.19023 3.20239 7.10399 3.62518 7.65744C4.07232 8.24249 3.70005 9.18384 3.65677 9.83801C3.62435 10.3263 3.76654 10.7502 4.30716 10.8195C4.47107 10.8406 4.63943 10.8346 4.80334 10.8156C5.02963 10.7891 5.24588 10.7235 5.44106 10.6047C6.09078 10.2089 6.44149 9.14626 6.46058 8.42461C6.47259 7.96562 6.30785 7.49413 5.83602 7.35144C5.10286 7.12993 4.37084 8.04187 3.6752 7.62715C3.56016 7.55852 3.45517 7.47099 3.37601 7.36221C2.83539 6.61917 3.46801 5.83565 4.07479 5.3974C4.65704 4.97709 5.41506 4.59801 6.14559 4.57414C7.77731 4.52066 8.74646 6.17598 8.96337 7.5987C9.08087 6.21449 8.61251 4.82643 8.51212 3.45308C8.47839 2.9908 8.4239 2.42238 8.5549 1.9443C8.78695 1.09692 9.84712 0.701451 10.5544 1.25869C11.1109 1.69694 11.347 2.56412 11.3709 3.23821C14.056 3.18225 14.1108 5.53859 14.1181 5.53859C14.1577 5.53875 16.1407 6.03444 15.9219 8.2471C15.5227 12.2855 12.3058 15.266 10.4983 15.3914C10.4865 15.3922 10.261 15.9223 10.1868 16.1516C9.99507 16.7442 10.1172 16.3857 10.0077 17" fill="#FFDE18"/>
<path d="M4.34237 16.8102C4.40524 16.3329 4.88809 15.5341 4.49016 15.2636C2.81499 14.1252 0.913364 12.6222 1.00306 10.3712C1.03926 9.4588 1.30488 8.33022 1.95099 7.65021C2.38825 7.19023 3.20239 7.10399 3.62518 7.65744C4.07232 8.24249 3.70005 9.18384 3.65677 9.83801C3.62435 10.3263 3.76654 10.7502 4.30716 10.8195C4.47107 10.8406 4.63943 10.8346 4.80334 10.8156C5.02963 10.7891 5.24588 10.7235 5.44106 10.6047C6.09078 10.2089 6.44149 9.14626 6.46058 8.42461C6.47259 7.96562 6.30785 7.49413 5.83602 7.35144C5.10286 7.12993 4.37084 8.04187 3.6752 7.62715C3.56016 7.55852 3.45517 7.47099 3.37601 7.36221C2.83539 6.61917 3.46801 5.83565 4.07479 5.3974C4.65704 4.97709 5.41506 4.59801 6.14559 4.57414C7.77731 4.52066 8.74646 6.17598 8.96337 7.5987C9.08087 6.21449 8.61251 4.82643 8.51212 3.45308C8.47839 2.9908 8.4239 2.42238 8.5549 1.9443C8.78695 1.09692 9.84712 0.701451 10.5544 1.25869C11.1109 1.69694 11.347 2.56412 11.3709 3.23821C14.056 3.18225 14.1108 5.53859 14.1181 5.53859C14.1577 5.53875 16.1407 6.03444 15.9219 8.2471C15.5227 12.2855 12.3058 15.266 10.4983 15.3914C10.4865 15.3922 10.261 15.9223 10.1868 16.1516C9.99507 16.7442 10.1172 16.3857 10.0077 17" stroke="#62A544" stroke-width="1.5" stroke-miterlimit="1.5" stroke-linecap="round" stroke-linejoin="round"/>
</svg>
