<svg width="13" height="16" viewBox="0 0 13 16" fill="none" xmlns="http://www.w3.org/2000/svg">
<path d="M6.59033 0.445953L6.50999 0.429575L6.57133 0.416594L6.87386 0.352571M6.59033 0.445953L6.87386 0.352571M6.59033 0.445953C6.59221 0.444453 6.59384 0.443025 6.59522 0.441713C6.59947 0.437667 6.60108 0.435107 6.60112 0.435041C6.60113 0.435022 6.601 0.435218 6.60077 0.435656C6.5998 0.437454 6.59768 0.442104 6.59599 0.449695L6.59033 0.445953ZM6.87386 0.352571L6.56947 0.414633L6.50309 0.428167L6.43671 0.414633L6.13232 0.352571C6.15369 0.251611 6.20168 0.162225 6.26878 0.0984214C6.33587 0.0346179 6.41828 0 6.50309 0C6.58789 0 6.6703 0.0346179 6.7374 0.0984214C6.8045 0.162225 6.85249 0.251611 6.87386 0.352571ZM6.58667 15.5513L6.59578 15.5494C6.59751 15.5575 6.59976 15.5625 6.60077 15.5644C6.60181 15.5663 6.60073 15.5635 6.59522 15.5583C6.59384 15.557 6.5922 15.5556 6.59032 15.5541L6.50999 15.5704L6.57134 15.5834L6.87386 15.6474M6.58667 15.5513L6.41019 15.5503C6.40849 15.5579 6.40637 15.5626 6.40541 15.5644C6.40437 15.5663 6.40545 15.5635 6.41096 15.5583C6.41234 15.557 6.41397 15.5556 6.41586 15.5541L6.49618 15.5704L6.43484 15.5834L6.13232 15.6474L6.4367 15.5854L6.50309 15.5718L6.56947 15.5854L6.87386 15.6474M6.58667 15.5513L6.50309 15.569L6.41951 15.5513C6.43518 15.54 6.46354 15.5263 6.50309 15.5263C6.54264 15.5263 6.571 15.54 6.58667 15.5513ZM6.87386 15.6474C6.85249 15.7484 6.8045 15.8378 6.7374 15.9016L12.7134 8.45612C8.94395 9.6192 7.81931 11.0103 6.87386 15.6474ZM12.5246 8.01867C10.6344 8.60638 9.31738 9.27902 8.36678 10.4505C7.48077 11.5424 6.95575 13.017 6.50308 15.108C6.05016 13.0167 5.52363 11.5421 4.63605 10.4502C3.68393 9.27892 2.36548 8.60635 0.475418 8.01867C0.474375 8.01313 0.473723 8.00682 0.473723 8C0.473723 7.99319 0.474375 7.98688 0.475418 7.98133C2.36548 7.39365 3.68393 6.72108 4.63605 5.5498C5.52363 4.45792 6.05016 2.98326 6.50308 0.892007C6.95575 2.98297 7.48077 4.4576 8.36678 5.54949C9.31738 6.72098 10.6344 7.39363 12.5246 7.98133C12.5256 7.98688 12.5263 7.99319 12.5263 8C12.5263 8.00682 12.5256 8.01312 12.5246 8.01867ZM6.41096 0.441713L6.43484 0.416594L6.49618 0.429575L6.41585 0.445953C6.41397 0.444453 6.41234 0.443025 6.41096 0.441713ZM6.41951 0.448725L6.50309 0.431036L6.58667 0.448725C6.57102 0.460022 6.54266 0.473723 6.50309 0.473723C6.46352 0.473723 6.43516 0.460022 6.41951 0.448725Z" fill="#FFDE18" stroke="#F16161" stroke-width="0.947447"/>
</svg>
