<svg width="29" height="29" viewBox="0 0 29 29" fill="none" xmlns="http://www.w3.org/2000/svg">
<path d="M14.4805 2.0967C14.6222 1.79479 15.0516 1.79479 15.1933 2.0967L18.9192 10.0339C18.975 10.1526 19.0862 10.2358 19.2159 10.2557L27.58 11.5413C27.8967 11.5899 28.0258 11.9763 27.8019 12.2055L21.7258 18.4286C21.6385 18.518 21.5988 18.6437 21.6189 18.7671L23.0494 27.537C23.1023 27.8614 22.7579 28.104 22.4702 27.9449L15.0275 23.8292C14.9089 23.7636 14.7649 23.7636 14.6464 23.8292L7.20363 27.9449C6.91597 28.104 6.57155 27.8614 6.62447 27.537L8.05491 18.7671C8.07504 18.6437 8.03537 18.518 7.94803 18.4286L1.8719 12.2055C1.64807 11.9763 1.77714 11.5899 2.09381 11.5413L10.458 10.2557C10.5876 10.2358 10.6989 10.1526 10.7546 10.0339L14.4805 2.0967Z" fill="#62A544" stroke="#023854" stroke-width="2" stroke-linecap="round" stroke-linejoin="round"/>
</svg>
