<svg width="58" height="30" viewBox="0 0 58 30" fill="none" xmlns="http://www.w3.org/2000/svg">
<path d="M51.5851 2.70546C53.1967 4.90204 55.302 7.90117 56.5009 10.2806M56.5009 10.2806C56.6391 10.5547 54.3351 10.7899 54.2274 10.7921C51.8658 10.8419 49.5528 10.5929 47.1984 10.2908M56.5009 10.2806C45.3278 0.336412 30.3445 -1.18689 22.3539 5.02909C21.5619 5.64516 20.7006 6.31653 19.9097 7.06194M19.9097 7.06194C18.6501 8.24903 17.569 9.6239 17.2303 11.2622C16.9179 12.7743 17.1831 14.9057 18.4766 16.0331C20.893 18.1391 24.5514 16.3263 24.733 13.407C24.8928 10.8416 22.5295 7.66053 19.9097 7.06194ZM19.9097 7.06194C19.8544 7.04932 19.7991 7.03784 19.7436 7.02754C6.35548 4.54208 -0.53807 17.8894 2.12086 28.3121" stroke="#F16161" stroke-width="2.5" stroke-miterlimit="1.5" stroke-linecap="round" stroke-linejoin="round"/>
</svg>
