<svg width="47" height="23" viewBox="0 0 47 23" fill="none" xmlns="http://www.w3.org/2000/svg">
<path d="M4.37266 4.02323C3.34579 5.86133 2.01694 8.36486 1.32552 10.3207M1.32552 10.3207C1.24578 10.546 3.04209 10.5829 3.12517 10.5776C4.94775 10.4644 6.7039 10.1185 8.48681 9.72795M1.32552 10.3207C8.95864 1.74897 20.3434 -0.421137 27.0984 3.96987C27.768 4.40506 28.4962 4.87944 29.1774 5.41681M29.1774 5.41681C30.2624 6.27258 31.2282 7.28812 31.6482 8.55958C32.0358 9.73302 32.0388 11.4327 31.1528 12.4063C29.4977 14.2248 26.5055 13.03 26.0818 10.7372C25.7094 8.72236 27.2191 6.05853 29.1774 5.41681ZM29.1774 5.41681C29.2187 5.40327 29.2603 5.39064 29.3019 5.37892C39.3653 2.55228 45.9693 12.6437 44.9362 21.0434" stroke="#FFDE18" stroke-width="2.57212" stroke-miterlimit="1.5" stroke-linecap="round" stroke-linejoin="round"/>
</svg>
