<svg width="25" height="22" viewBox="0 0 25 22" fill="none" xmlns="http://www.w3.org/2000/svg">
<path d="M22.7738 10.9714C19.679 11.7279 17.4618 12.6191 15.8101 14.1075C14.0782 15.6683 13.066 17.7958 12.1962 20.7854C11.3259 17.7951 10.3108 15.6676 8.57598 14.107C6.9218 12.619 4.70221 11.7278 1.60714 10.9714C4.70221 10.2149 6.9218 9.3238 8.57598 7.83574C10.3108 6.27515 11.3259 4.14768 12.1962 1.15737C13.066 4.14698 14.0782 6.27451 15.8101 7.83524C17.4618 9.32368 19.679 10.2149 22.7738 10.9714ZM0.695125 11.0445L0.671608 11.0243L0.695125 11.0445ZM0.695124 10.8983L0.671609 10.9185L0.695124 10.8983Z" fill="#62A544" stroke="#FFDE18" stroke-width="1.70666"/>
</svg>
