<svg width="57" height="56" viewBox="0 0 57 56" fill="none" xmlns="http://www.w3.org/2000/svg">
<circle cx="29.877" cy="29.8361" r="26.1639" fill="#023854"/>
<circle cx="27.1229" cy="26.1639" r="26.1639" fill="#FFDE18"/>
<path d="M35.0137 21.3123C31.762 14.8036 20.8063 16.2359 19.2414 23.3861C18.2972 27.7005 22.2785 30.7199 22.7928 34.7602H31.9199C32.1883 33.6799 32.7343 32.395 33.1125 31.6052C33.8983 29.9645 35.0099 28.8921 35.432 27.0617C35.8335 25.3201 35.787 22.8604 35.0137 21.3123Z" fill="white" stroke="#023854" stroke-width="2.24408" stroke-miterlimit="1.5" stroke-linecap="round" stroke-linejoin="round"/>
<path fill-rule="evenodd" clip-rule="evenodd" d="M22.626 40.2666C22.6234 39.0199 22.5622 37.7732 22.5838 36.5269C22.5924 36.0333 22.5081 35.4297 22.9353 35.0846C23.559 34.581 24.4868 34.5076 25.2608 34.489C26.7116 34.4543 28.1736 34.4665 29.6258 34.4695C30.2872 34.4706 31.2743 34.3558 31.8704 34.6844C32.4378 34.9966 32.5815 35.8478 32.6452 36.4227C32.7676 37.5243 33.0933 39.9841 32.158 40.8369C31.569 41.3741 30.6502 41.4865 29.8959 41.5794C27.8949 41.8256 22.629 41.7767 22.626 40.2666Z" fill="white" stroke="#023854" stroke-width="2.24408" stroke-miterlimit="1.5" stroke-linecap="round" stroke-linejoin="round"/>
<path d="M27.9587 41.6854C27.975 42.3639 27.983 43.046 27.9296 43.7234" stroke="#023854" stroke-width="2.24408" stroke-miterlimit="1.5" stroke-linecap="round" stroke-linejoin="round"/>
<path d="M12.1339 31.3268C12.8458 30.9511 13.5893 30.642 14.3088 30.2826" stroke="#023854" stroke-width="2.24408" stroke-miterlimit="1.5" stroke-linecap="round" stroke-linejoin="round"/>
<path d="M12.1339 16.7241C12.9286 17.2287 13.6888 17.7864 14.4852 18.2867" stroke="#023854" stroke-width="2.24408" stroke-miterlimit="1.5" stroke-linecap="round" stroke-linejoin="round"/>
<path d="M27.8201 10.743C27.7922 9.74363 27.7984 8.75137 27.8303 7.75232" stroke="#023854" stroke-width="2.24408" stroke-miterlimit="1.5" stroke-linecap="round" stroke-linejoin="round"/>
<path d="M40.1214 17.5513C41.119 16.891 42.1463 16.2706 43.161 15.6367" stroke="#023854" stroke-width="2.24408" stroke-miterlimit="1.5" stroke-linecap="round" stroke-linejoin="round"/>
<path d="M38.3812 31.1697C39.1505 31.8591 39.923 32.5405 40.6676 33.2567" stroke="#023854" stroke-width="2.24408" stroke-miterlimit="1.5" stroke-linecap="round" stroke-linejoin="round"/>
</svg>
