<svg width="57" height="56" viewBox="0 0 57 56" fill="none" xmlns="http://www.w3.org/2000/svg">
<circle cx="29.8769" cy="29.8361" r="26.1639" fill="#023854"/>
<circle cx="27.1229" cy="26.1639" r="26.1639" fill="#FFDE18"/>
<path fill-rule="evenodd" clip-rule="evenodd" d="M19.9615 43.5654C20.0901 42.5891 21.0777 40.9552 20.2638 40.4017C16.8372 38.0733 12.9474 34.9988 13.1309 30.3944C13.2049 28.5281 13.7483 26.2196 15.0699 24.8286C15.9643 23.8877 17.6296 23.7113 18.4944 24.8434C19.4091 26.0401 18.6476 27.9657 18.5591 29.3038C18.4927 30.3025 18.7836 31.1697 19.8894 31.3114C20.2247 31.3545 20.5691 31.3424 20.9044 31.3033C21.3672 31.2491 21.8096 31.1151 22.2088 30.872C23.5378 30.0624 24.2552 27.8888 24.2943 26.4126C24.3188 25.4738 23.9818 24.5093 23.0167 24.2175C21.517 23.7644 20.0197 25.6297 18.5968 24.7814C18.3615 24.6411 18.1467 24.462 17.9848 24.2395C16.8789 22.7196 18.173 21.1169 19.4141 20.2205C20.6051 19.3607 22.1556 18.5853 23.6499 18.5365C26.9876 18.4271 28.97 21.8131 29.4137 24.7232C29.6541 21.8918 28.696 19.0526 28.4907 16.2434C28.4217 15.2978 28.3102 14.1351 28.5782 13.1571C29.0529 11.4238 31.2214 10.6149 32.6683 11.7547C33.8064 12.6512 34.2895 14.425 34.3383 15.8038C39.8308 15.6894 39.9429 20.5093 39.9577 20.5093C40.0388 20.5096 44.0949 21.5235 43.6475 26.0495C42.8308 34.3101 36.2507 40.4067 32.5535 40.6632C32.5292 40.6649 32.0681 41.7493 31.9162 42.2182C31.5241 43.4304 31.7738 42.697 31.55 43.9536" fill="white"/>
<path d="M19.9615 43.5654C20.0901 42.5891 21.0777 40.9552 20.2638 40.4017C16.8372 38.0733 12.9474 34.9988 13.1309 30.3944C13.2049 28.5281 13.7483 26.2196 15.0699 24.8286C15.9643 23.8877 17.6296 23.7113 18.4944 24.8434C19.4091 26.0401 18.6476 27.9656 18.5591 29.3038C18.4927 30.3025 18.7836 31.1697 19.8894 31.3114C20.2247 31.3545 20.5691 31.3424 20.9044 31.3033C21.3672 31.2491 21.8096 31.1151 22.2088 30.872C23.5378 30.0624 24.2552 27.8888 24.2943 26.4126C24.3188 25.4738 23.9818 24.5093 23.0167 24.2175C21.517 23.7644 20.0197 25.6297 18.5968 24.7814C18.3615 24.6411 18.1467 24.462 17.9848 24.2395C16.8789 22.7196 18.173 21.1169 19.4141 20.2205C20.6051 19.3607 22.1556 18.5853 23.6499 18.5365C26.9876 18.4271 28.97 21.8131 29.4137 24.7232C29.6541 21.8918 28.696 19.0526 28.4907 16.2434C28.4217 15.2978 28.3102 14.1351 28.5782 13.1571C29.0529 11.4238 31.2214 10.6149 32.6683 11.7547C33.8064 12.6512 34.2895 14.425 34.3383 15.8038C39.8308 15.6894 39.9429 20.5093 39.9577 20.5093C40.0388 20.5096 44.0949 21.5235 43.6475 26.0495C42.8308 34.3101 36.2507 40.4067 32.5535 40.6632C32.5292 40.6649 32.0681 41.7493 31.9162 42.2182C31.5241 43.4304 31.7738 42.697 31.55 43.9536" stroke="#023854" stroke-width="2.0455" stroke-miterlimit="1.5" stroke-linecap="round" stroke-linejoin="round"/>
<path d="M34.3269 15.7511C34.625 17.7351 34.8232 20.1801 34.8251 22.5132C34.827 24.9409 34.6163 27.2474 34.0845 28.7872" stroke="#023854" stroke-width="2.0455" stroke-miterlimit="1.5" stroke-linecap="round" stroke-linejoin="round"/>
<path d="M39.9558 20.556C39.9621 22.0926 39.7935 23.4883 39.5304 24.7239C39.1109 26.6941 38.4514 28.2574 37.8783 29.3365" stroke="#023854" stroke-width="2.0455" stroke-miterlimit="1.5" stroke-linecap="round" stroke-linejoin="round"/>
</svg>
