<svg width="59" height="32" viewBox="0 0 59 32" fill="none" xmlns="http://www.w3.org/2000/svg">
<path d="M57.1421 11.1561C57.2254 8.43296 57.2609 4.76885 56.9006 2.1289M56.9006 2.1289C56.8592 1.82471 54.8275 2.93636 54.7375 2.99557C52.7634 4.2926 50.9985 5.8083 49.2296 7.39123M56.9006 2.1289C53.3283 16.6535 41.8452 26.398 31.7389 25.8035C30.7373 25.7446 29.6472 25.6793 28.5731 25.5132M28.5731 25.5132C26.8627 25.2487 25.1928 24.7284 23.9855 23.5703C22.8713 22.5014 21.8823 20.5948 22.3093 18.933C23.1072 15.8285 27.1488 15.2495 28.9526 17.5521C30.5377 19.5754 30.3927 23.5357 28.5731 25.5132ZM28.5731 25.5132C28.5348 25.555 28.4956 25.5958 28.4558 25.6357C18.8322 35.2693 5.58947 28.1769 1.87501 18.082" stroke="#F16161" stroke-width="2.5" stroke-miterlimit="1.5" stroke-linecap="round" stroke-linejoin="round"/>
</svg>
