<svg width="65" height="66" viewBox="0 0 65 66" fill="none" xmlns="http://www.w3.org/2000/svg">
<circle cx="34.0798" cy="34.2804" r="26.1639" transform="rotate(-11 34.0798 34.2804)" fill="#023854"/>
<circle cx="30.6755" cy="31.2012" r="26.1639" transform="rotate(-11 30.6755 31.2012)" fill="#FFDE18"/>
<path fill-rule="evenodd" clip-rule="evenodd" d="M38.8319 19.2385C33.4285 16.4611 26.7515 18.2075 22.773 21.8409C15.9164 28.1032 17.212 40.1567 23.8067 44.4147C31.0782 49.1093 39.1657 46.0652 42.6015 41.4895C47.0546 35.559 47.8017 27.0745 41.9884 21.9929" fill="white"/>
<path d="M38.8319 19.2385C33.4285 16.4611 26.7515 18.2075 22.773 21.8409C15.9164 28.1032 17.212 40.1567 23.8067 44.4147C31.0782 49.1093 39.1657 46.0652 42.6015 41.4895C47.0546 35.559 47.8017 27.0745 41.9884 21.9929" stroke="#023854" stroke-width="2.04007" stroke-miterlimit="1.5" stroke-linecap="round" stroke-linejoin="round"/>
<path d="M27.9174 29.3475C27.9415 30.1198 28.0411 30.9005 28.1692 31.6629" stroke="#023854" stroke-width="2.04007" stroke-miterlimit="1.5" stroke-linecap="round" stroke-linejoin="round"/>
<path d="M34.5801 27.8341C34.7611 28.7374 35.0008 29.6704 35.0861 30.5912" stroke="#023854" stroke-width="2.04007" stroke-miterlimit="1.5" stroke-linecap="round" stroke-linejoin="round"/>
<path d="M25.5921 36.3866C25.9801 37.1847 26.6246 37.824 27.3557 38.3106C30.9411 40.6979 36.3771 38.6776 37.8236 34.6739" stroke="#023854" stroke-width="2.04007" stroke-miterlimit="1.5" stroke-linecap="round" stroke-linejoin="round"/>
</svg>
