<svg width="31" height="58" viewBox="0 0 31 58" fill="none" xmlns="http://www.w3.org/2000/svg">
<path d="M10.9686 56.6018C8.24648 56.7113 4.58288 56.7819 1.9396 56.447M1.9396 56.447C1.63502 56.4085 2.72711 54.3662 2.78546 54.2757C4.06347 52.2892 5.56215 50.5099 7.12803 48.7258M1.9396 56.447C16.4292 52.7354 26.063 41.1592 25.3715 31.0592C25.303 30.0581 25.2273 28.9687 25.0509 27.8963M25.0509 27.8963C24.7699 26.1885 24.2336 24.5237 23.064 23.3276C21.9845 22.2237 20.0684 21.253 18.4107 21.696C15.3141 22.5236 14.7739 26.5706 17.0937 28.3522C19.1322 29.9178 23.0908 29.7348 25.0509 27.8963ZM25.0509 27.8963C25.0922 27.8575 25.1327 27.818 25.1722 27.7778C34.7129 18.0621 27.4937 4.88813 17.3637 1.27077" stroke="#FFDE18" stroke-width="2.5" stroke-miterlimit="1.5" stroke-linecap="round" stroke-linejoin="round"/>
</svg>
